<svg width="800" height="400" viewBox="0 0 800 400" fill="none" xmlns="http://www.w3.org/2000/svg">
<rect width="800" height="400" fill="white"/>
<g clip-path="url(#clip0_4_18)">
<path d="M322.113 166.43V192.498H293.452V166.43H277.664V234.791H293.452V207.305H322.113V234.791H337.901V166.43H337.091H322.113Z" fill="#002C5F"/>
<path d="M395.79 166.43L379.233 193.499L362.757 166.43H344.094L371.379 211.1V234.791H387.167V211.1L414.412 166.43H412.954H395.79Z" fill="#002C5F"/>
<path d="M465.216 166.43V216.522C465.216 218.441 463.84 219.942 461.856 219.942H436.555V166.43H420.767V234.791H467.443C471.613 234.791 474.932 233.539 477.361 231.037C479.79 228.534 481.004 225.114 481.004 220.818V166.43H480.235H465.216Z" fill="#002C5F"/>
<path d="M542.294 166.43H495.618V234.791H511.406V181.237H536.748C538.772 181.237 540.108 182.863 540.108 184.657V234.791H555.896V180.403C555.896 176.107 554.681 172.686 552.252 170.184C549.743 167.723 546.423 166.43 542.294 166.43Z" fill="#002C5F"/>
<path d="M617.145 166.43H570.469V234.791H617.145C621.274 234.791 624.594 233.539 627.023 231.037C629.452 228.534 630.666 225.114 630.666 220.818V180.403C630.666 176.107 629.452 172.686 627.023 170.184C624.594 167.723 621.274 166.43 617.145 166.43ZM614.919 184.782V216.439C614.919 218.274 613.623 219.984 611.558 219.984H586.257V181.237H611.478C613.542 181.237 614.919 182.738 614.919 184.782Z" fill="#002C5F"/>
<path d="M658.194 166.43C654.065 166.43 650.705 167.681 648.276 170.184C645.847 172.686 644.632 176.107 644.632 180.403V234.791H660.38V213.644H689.041V234.791H704.829V166.43H658.194ZM689.081 181.237V198.838H660.42V184.699C660.42 183.03 661.675 181.237 663.78 181.237H689.081Z" fill="#002C5F"/>
<path d="M736 166.43H720.212V234.791H736V166.43Z" fill="#002C5F"/>
<path d="M154.234 248.221C204.067 248.221 244.468 226.908 244.468 200.59C244.509 174.313 204.108 153 154.234 153C104.401 153 64 174.313 64 200.59C64 226.908 104.401 248.221 154.234 248.221ZM171.237 224.864C169.739 228.451 167.148 236.125 161.197 239.212C159.416 240.129 157.189 240.588 155.165 240.63C154.72 240.63 154.396 240.63 154.275 240.63C137.596 240.63 122.132 238.252 109.137 234.165C109.016 234.123 108.733 233.998 108.652 233.956C107.437 233.539 106.83 232.955 106.83 232.288C106.83 231.662 107.154 231.204 107.559 230.787C107.72 230.578 108.004 230.369 108.368 230.036C111.364 227.45 120.391 220.735 137.394 214.02C143.345 211.684 150.793 208.764 158.647 207.054C163.221 206.053 180.183 203.384 171.237 224.864ZM216.819 176.857C217.143 176.273 217.588 175.815 218.358 175.731C218.762 175.689 219.37 175.815 220.22 176.357C230.826 183.072 237.101 191.455 237.101 200.548C237.101 216.981 216.617 231.079 187.308 237.251C185.405 237.627 184.191 237.627 183.746 237.126C183.462 236.834 183.381 236.292 183.746 235.666C183.948 235.333 184.15 235.041 184.515 234.54C200.465 215.146 212.609 186.575 216.091 178.317C216.374 177.817 216.617 177.233 216.819 176.857ZM137.515 176.273C139.013 172.686 141.604 165.012 147.555 161.967C149.376 161.05 151.562 160.591 153.587 160.549C154.032 160.549 154.356 160.549 154.477 160.549C171.156 160.549 186.62 162.927 199.614 167.014C199.695 167.056 200.019 167.181 200.1 167.181C201.315 167.598 201.922 168.14 201.922 168.849C201.922 169.475 201.598 169.934 201.193 170.351C200.991 170.518 200.748 170.768 200.384 171.102C197.388 173.687 188.36 180.403 171.358 187.118C165.407 189.453 157.918 192.373 150.146 194.083C145.531 195.084 128.569 197.753 137.515 176.273ZM121.16 163.886C123.063 163.511 124.278 163.511 124.723 164.011C124.966 164.303 125.047 164.845 124.723 165.471C124.52 165.805 124.318 166.138 123.954 166.597C108.004 185.992 95.8593 214.562 92.3778 222.82C92.1349 223.404 91.8516 223.946 91.6492 224.322C91.3253 224.906 90.9205 225.406 90.1513 225.448C89.706 225.49 89.1393 225.364 88.2487 224.822C77.6424 218.107 71.3677 209.724 71.3677 200.631C71.3677 184.198 91.8516 170.059 121.16 163.886Z" fill="#002C5F"/>
</g>
<defs>
<clipPath id="clip0_4_18">
<rect width="672" height="94" fill="white" transform="translate(64 153)"/>
</clipPath>
</defs>
</svg>
