<svg width="800" height="400" viewBox="0 0 800 400" fill="none" xmlns="http://www.w3.org/2000/svg">
<rect width="800" height="400" fill="#0086FF"/>
<path d="M507.29 132.561C490.258 132.561 476.457 146.424 476.457 163.516C476.457 180.607 490.266 194.471 507.29 194.471C512.421 194.471 517.251 193.207 521.503 190.981V194.471H537.007V163.516C537.007 146.416 524.314 132.561 507.29 132.561ZM506.736 176.942C499.348 176.942 493.362 170.933 493.362 163.516C493.362 156.099 499.348 150.089 506.736 150.089C514.123 150.089 520.109 156.099 520.109 163.516C520.109 170.933 514.123 176.942 506.736 176.942Z" fill="white"/>
<path d="M597.422 132.521C592.006 132.521 586.574 134.317 582.559 137.306C578.545 134.317 573.113 132.521 567.697 132.521C554.529 132.521 543.816 139.81 543.816 150.089V194.471H561.299V155.582C561.299 152.514 564.102 150.018 567.555 150.018C571.007 150.018 573.81 152.514 573.81 155.582V194.471H591.293V155.582C591.293 152.514 594.096 150.018 597.549 150.018C601.001 150.018 603.804 152.514 603.804 155.582V194.471H621.287V150.089C621.287 139.81 610.574 132.521 597.406 132.521H597.422Z" fill="white"/>
<path d="M453.415 156.075H429.866C428.259 156.028 426.968 154.708 426.968 153.086C426.968 151.465 428.314 150.066 429.866 150.066H469.655C469.505 140.264 461.61 132.76 451.855 132.64H427.372C417.261 132.64 409.065 141.806 409.065 151.958C409.065 162.777 415.463 171.982 428.655 171.982H452.425C454.072 171.982 455.402 173.326 455.402 174.971C455.402 176.49 454.159 177.96 452.52 177.96H414.933L421.972 194.463H452.433C463.202 194.463 471.936 185.703 471.936 174.892C471.936 161.584 463.637 156.067 453.407 156.067L453.415 156.075Z" fill="white"/>
<path d="M261.297 132.521H275.003V194.471H253.854V139.993C253.854 135.867 257.188 132.521 261.297 132.521Z" fill="white"/>
<path d="M287.11 139.811C283.254 139.811 280.657 143.777 282.193 147.331L302.487 194.479V139.811H287.11Z" fill="white"/>
<path d="M302.487 139.811V194.479L314.285 167.181L302.487 139.811Z" fill="#00B8FF"/>
<path d="M352.847 132.521H336.321C332.054 132.521 328.19 135.065 326.487 139L302.495 194.479H326.052L352.847 132.529V132.521Z" fill="white"/>
<path d="M184.079 139.811C180.223 139.811 177.625 143.777 179.162 147.331L199.456 194.479V139.811H184.079Z" fill="white"/>
<path d="M199.456 139.811V194.479L211.254 167.181L199.456 139.811Z" fill="#00B8FF"/>
<path d="M249.815 132.521H233.29C229.022 132.521 225.158 135.065 223.456 139L199.464 194.479H223.02L249.815 132.529V132.521Z" fill="white"/>
<path d="M387.647 132.529H371.209C366.949 132.529 363.093 135.065 361.398 138.984L337.335 194.471H360.789L375.928 159.557L389.666 191.236C390.521 193.199 392.445 194.471 394.583 194.471H414.521L387.655 132.521L387.647 132.529Z" fill="white"/>
<path d="M155.359 237.943H163.387V241.039H155.359V237.943ZM146.467 232.543H149.527V236.359C149.527 238.543 149.179 240.583 148.483 242.479C147.787 244.351 146.755 245.995 145.387 247.411C144.043 248.827 142.399 249.907 140.455 250.651L138.475 247.663C139.771 247.207 140.911 246.595 141.895 245.827C142.903 245.059 143.743 244.171 144.415 243.163C145.087 242.155 145.591 241.087 145.927 239.959C146.287 238.807 146.467 237.607 146.467 236.359V232.543ZM147.223 232.543H150.247V236.467C150.247 237.571 150.415 238.651 150.751 239.707C151.111 240.763 151.615 241.759 152.263 242.695C152.911 243.631 153.715 244.459 154.675 245.179C155.635 245.899 156.727 246.487 157.951 246.943L155.935 249.859C154.111 249.139 152.539 248.119 151.219 246.799C149.923 245.455 148.927 243.895 148.231 242.119C147.559 240.343 147.223 238.459 147.223 236.467V232.543ZM162.019 230.563H165.799V255.007H162.019V230.563ZM144.379 259.723H166.555V262.783H144.379V259.723ZM144.379 252.415H148.159V261.307H144.379V252.415ZM176.308 232.579H179.296V236.719C179.296 238.447 179.008 240.151 178.432 241.831C177.856 243.487 177.004 244.987 175.876 246.331C174.772 247.675 173.368 248.719 171.664 249.463L169.648 246.547C171.136 245.875 172.372 245.011 173.356 243.955C174.34 242.875 175.072 241.711 175.552 240.463C176.056 239.191 176.308 237.943 176.308 236.719V232.579ZM176.992 232.579H179.944V236.719C179.944 237.895 180.184 239.059 180.664 240.211C181.144 241.363 181.864 242.407 182.824 243.343C183.784 244.279 184.96 245.035 186.352 245.611L184.372 248.455C182.74 247.807 181.372 246.883 180.268 245.683C179.164 244.483 178.336 243.115 177.784 241.579C177.256 240.019 176.992 238.399 176.992 236.719V232.579ZM194.128 230.563H197.728V250.795H194.128V230.563ZM189.448 239.023H195.208V242.083H189.448V239.023ZM187.108 231.175H190.672V249.751H187.108V231.175ZM186.748 251.371C189.028 251.371 190.996 251.611 192.652 252.091C194.332 252.571 195.616 253.267 196.504 254.179C197.416 255.067 197.872 256.147 197.872 257.419C197.872 258.667 197.416 259.735 196.504 260.623C195.616 261.535 194.332 262.219 192.652 262.675C190.996 263.155 189.028 263.395 186.748 263.395C184.492 263.395 182.524 263.155 180.844 262.675C179.164 262.219 177.868 261.535 176.956 260.623C176.068 259.735 175.624 258.667 175.624 257.419C175.624 256.147 176.068 255.067 176.956 254.179C177.868 253.267 179.164 252.571 180.844 252.091C182.524 251.611 184.492 251.371 186.748 251.371ZM186.748 254.251C184.444 254.251 182.632 254.527 181.312 255.079C180.016 255.607 179.368 256.387 179.368 257.419C179.368 258.403 180.016 259.171 181.312 259.723C182.632 260.275 184.444 260.551 186.748 260.551C188.284 260.551 189.604 260.431 190.708 260.191C191.812 259.927 192.652 259.567 193.228 259.111C193.804 258.655 194.092 258.091 194.092 257.419C194.092 256.387 193.444 255.607 192.148 255.079C190.876 254.527 189.076 254.251 186.748 254.251ZM224.509 230.527H228.289V249.067H224.509V230.527ZM203.161 232.435H206.905V245.899H203.161V232.435ZM203.161 243.883H205.897C208.705 243.883 211.345 243.787 213.817 243.595C216.289 243.379 218.797 242.995 221.341 242.443L221.809 245.539C219.193 246.091 216.601 246.475 214.033 246.691C211.489 246.907 208.777 247.015 205.897 247.015H203.161V243.883ZM206.761 250.579H228.289V263.035H206.761V250.579ZM224.581 253.567H210.469V260.011H224.581V253.567ZM233.938 233.983H248.482V237.043H233.938V233.983ZM238.654 243.415H242.362V254.575H238.654V243.415ZM246.97 233.983H250.678V236.179C250.678 237.619 250.642 239.395 250.57 241.507C250.498 243.619 250.222 246.127 249.742 249.031L246.034 248.707C246.49 245.899 246.754 243.475 246.826 241.435C246.922 239.371 246.97 237.619 246.97 236.179V233.983ZM254.242 230.527H257.986V263.431H254.242V230.527ZM256.906 244.063H262.882V247.195H256.906V244.063ZM232.57 256.519L232.174 253.387C234.142 253.387 236.278 253.375 238.582 253.351C240.886 253.303 243.226 253.219 245.602 253.099C247.978 252.955 250.258 252.751 252.442 252.487L252.658 255.259C250.402 255.619 248.086 255.895 245.71 256.087C243.358 256.255 241.066 256.363 238.834 256.411C236.602 256.459 234.514 256.495 232.57 256.519ZM292.025 230.563H295.769V250.363H292.025V230.563ZM294.761 239.023H300.413V242.119H294.761V239.023ZM274.781 252.019H295.769V263.035H274.781V252.019ZM292.097 255.043H278.489V260.047H292.097V255.043ZM270.137 233.767H289.541V236.791H270.137V233.767ZM279.857 238.159C281.441 238.159 282.821 238.399 283.997 238.879C285.197 239.359 286.133 240.043 286.805 240.931C287.477 241.819 287.813 242.851 287.813 244.027C287.813 245.203 287.477 246.235 286.805 247.123C286.133 248.011 285.197 248.695 283.997 249.175C282.821 249.655 281.441 249.895 279.857 249.895C278.273 249.895 276.881 249.655 275.681 249.175C274.481 248.695 273.545 248.011 272.873 247.123C272.201 246.235 271.865 245.203 271.865 244.027C271.865 242.851 272.201 241.819 272.873 240.931C273.545 240.043 274.481 239.359 275.681 238.879C276.881 238.399 278.273 238.159 279.857 238.159ZM279.857 240.967C278.537 240.967 277.469 241.243 276.653 241.795C275.861 242.323 275.465 243.079 275.465 244.063C275.465 244.999 275.861 245.743 276.653 246.295C277.469 246.823 278.537 247.087 279.857 247.087C281.153 247.087 282.197 246.823 282.989 246.295C283.781 245.743 284.177 244.999 284.177 244.063C284.177 243.079 283.781 242.323 282.989 241.795C282.197 241.243 281.153 240.967 279.857 240.967ZM277.949 230.311H281.729V235.387H277.949V230.311ZM306.278 234.379H309.446C309.446 236.299 309.374 238.207 309.23 240.103C309.086 241.975 308.822 243.835 308.438 245.683C308.054 247.507 307.514 249.295 306.818 251.047C306.146 252.775 305.258 254.443 304.154 256.051L301.202 254.395C302.282 252.907 303.146 251.395 303.794 249.859C304.442 248.323 304.946 246.739 305.306 245.107C305.69 243.475 305.942 241.795 306.062 240.067C306.206 238.339 306.278 236.551 306.278 234.703V234.379ZM302.066 234.379H308.222V237.475H302.066V234.379ZM313.55 234.379H316.754C316.754 236.299 316.694 238.267 316.574 240.283C316.478 242.299 316.25 244.327 315.89 246.367C315.554 248.407 315.026 250.399 314.306 252.343C313.61 254.287 312.662 256.159 311.462 257.959L308.546 256.267C309.458 254.971 310.214 253.627 310.814 252.235C311.438 250.843 311.93 249.427 312.29 247.987C312.674 246.523 312.95 245.059 313.118 243.595C313.286 242.107 313.394 240.631 313.442 239.167C313.514 237.679 313.55 236.203 313.55 234.739V234.379ZM310.49 234.379H315.638V237.475H310.49V234.379ZM326.078 230.563H329.678V263.467H326.078V230.563ZM315.17 243.199H320.534V246.259H315.17V243.199ZM319.886 231.319H323.414V261.847H319.886V231.319ZM340.174 233.371H355.546V248.923H340.174V233.371ZM351.874 236.395H343.882V245.899H351.874V236.395ZM360.946 230.527H364.69V254.611H360.946V230.527ZM363.574 240.319H369.334V243.451H363.574V240.319ZM343.882 259.723H366.058V262.783H343.882V259.723ZM343.882 252.271H347.662V261.163H343.882V252.271ZM370.375 243.847H400.111V246.871H370.375V243.847ZM374.191 238.591H396.583V241.579H374.191V238.591ZM374.191 231.427H396.259V234.451H377.935V241.075H374.191V231.427ZM373.831 249.283H396.331V257.455H377.611V260.983H373.903V254.719H392.623V252.163H373.831V249.283ZM373.903 260.191H397.267V263.107H373.903V260.191ZM410.512 232.939C412.144 232.939 413.584 233.419 414.832 234.379C416.08 235.339 417.064 236.683 417.784 238.411C418.504 240.139 418.864 242.179 418.864 244.531C418.864 246.907 418.504 248.971 417.784 250.723C417.064 252.451 416.08 253.795 414.832 254.755C413.584 255.691 412.144 256.159 410.512 256.159C408.904 256.159 407.464 255.691 406.192 254.755C404.944 253.795 403.96 252.451 403.24 250.723C402.544 248.971 402.196 246.907 402.196 244.531C402.196 242.179 402.544 240.139 403.24 238.411C403.96 236.683 404.944 235.339 406.192 234.379C407.464 233.419 408.904 232.939 410.512 232.939ZM410.512 236.359C409.576 236.359 408.748 236.683 408.028 237.331C407.332 237.979 406.78 238.915 406.372 240.139C405.988 241.363 405.796 242.827 405.796 244.531C405.796 246.259 405.988 247.735 406.372 248.959C406.78 250.183 407.332 251.131 408.028 251.803C408.748 252.451 409.576 252.775 410.512 252.775C411.472 252.775 412.3 252.451 412.996 251.803C413.716 251.131 414.268 250.183 414.652 248.959C415.06 247.735 415.264 246.259 415.264 244.531C415.264 242.827 415.06 241.363 414.652 240.139C414.268 238.915 413.716 237.979 412.996 237.331C412.3 236.683 411.472 236.359 410.512 236.359ZM425.2 230.527H428.98V263.503H425.2V230.527ZM417.676 242.767H426.82V245.827H417.676V242.767ZM454.681 230.527H458.461V263.431H454.681V230.527ZM457.489 243.523H463.429V246.655H457.489V243.523ZM446.185 234.019H449.857C449.857 237.211 449.365 240.259 448.381 243.163C447.421 246.043 445.849 248.695 443.665 251.119C441.505 253.543 438.625 255.655 435.025 257.455L432.937 254.575C435.913 253.039 438.373 251.287 440.317 249.319C442.285 247.351 443.749 245.143 444.709 242.695C445.693 240.247 446.185 237.559 446.185 234.631V234.019ZM434.593 234.019H448.129V237.079H434.593V234.019ZM468.142 239.995H490.714V243.019H468.142V239.995ZM464.29 246.979H494.098V250.003H464.29V246.979ZM468.142 231.715H471.886V241.507H468.142V231.715ZM467.89 259.651H490.894V262.675H467.89V259.651ZM467.89 252.991H471.67V260.443H467.89V252.991ZM501.893 244.243H531.629V247.267H501.893V244.243ZM505.385 249.679H527.885V257.635H509.165V261.163H505.457V254.935H524.177V252.523H505.385V249.679ZM505.457 260.263H528.821V263.143H505.457V260.263ZM514.529 232.939H517.841V233.911C517.841 234.871 517.625 235.783 517.193 236.647C516.785 237.511 516.185 238.303 515.393 239.023C514.625 239.719 513.689 240.343 512.585 240.895C511.505 241.423 510.281 241.867 508.913 242.227C507.569 242.563 506.117 242.791 504.557 242.911L503.333 240.067C504.701 239.971 505.949 239.791 507.077 239.527C508.229 239.263 509.261 238.939 510.173 238.555C511.085 238.147 511.865 237.703 512.513 237.223C513.161 236.719 513.653 236.191 513.989 235.639C514.349 235.087 514.529 234.511 514.529 233.911V232.939ZM515.681 232.939H518.957V233.911C518.957 234.511 519.125 235.087 519.461 235.639C519.821 236.191 520.325 236.719 520.973 237.223C521.621 237.727 522.401 238.171 523.313 238.555C524.249 238.939 525.281 239.263 526.409 239.527C527.561 239.791 528.809 239.971 530.153 240.067L528.965 242.911C527.429 242.791 525.977 242.563 524.609 242.227C523.265 241.867 522.041 241.423 520.937 240.895C519.857 240.367 518.921 239.743 518.129 239.023C517.337 238.303 516.725 237.523 516.293 236.683C515.885 235.819 515.681 234.895 515.681 233.911V232.939ZM504.593 231.679H528.929V234.667H504.593V231.679ZM556.683 230.563H560.463V263.467H556.683V230.563ZM549.627 243.487H558.447V246.583H549.627V243.487ZM546.063 234.019H549.771C549.771 236.419 549.519 238.735 549.015 240.967C548.511 243.199 547.695 245.311 546.567 247.303C545.463 249.271 543.963 251.107 542.067 252.811C540.171 254.515 537.831 256.063 535.047 257.455L533.031 254.539C535.383 253.363 537.387 252.079 539.043 250.687C540.699 249.271 542.043 247.747 543.075 246.115C544.107 244.459 544.863 242.683 545.343 240.787C545.823 238.867 546.063 236.827 546.063 234.667V234.019ZM534.507 234.019H548.043V237.043H534.507V234.019ZM564.528 246.943H594.336V249.967H564.528V246.943ZM577.74 248.887H581.592V256.159H577.74V248.887ZM568.164 259.723H591.024V262.783H568.164V259.723ZM568.164 253.063H571.98V260.515H568.164V253.063ZM579.396 231.247C581.724 231.247 583.764 231.523 585.516 232.075C587.268 232.627 588.624 233.407 589.584 234.415C590.568 235.423 591.06 236.611 591.06 237.979C591.06 239.347 590.568 240.535 589.584 241.543C588.624 242.551 587.268 243.331 585.516 243.883C583.764 244.411 581.724 244.675 579.396 244.675C577.068 244.675 575.016 244.411 573.24 243.883C571.488 243.331 570.132 242.551 569.172 241.543C568.212 240.535 567.732 239.347 567.732 237.979C567.732 236.611 568.212 235.423 569.172 234.415C570.132 233.407 571.488 232.627 573.24 232.075C575.016 231.523 577.068 231.247 579.396 231.247ZM579.396 234.307C577.86 234.307 576.516 234.451 575.364 234.739C574.212 235.027 573.324 235.447 572.7 235.999C572.076 236.551 571.764 237.211 571.764 237.979C571.764 238.747 572.076 239.407 572.7 239.959C573.324 240.511 574.212 240.931 575.364 241.219C576.516 241.507 577.86 241.651 579.396 241.651C580.956 241.651 582.3 241.507 583.428 241.219C584.556 240.931 585.432 240.511 586.056 239.959C586.704 239.407 587.028 238.747 587.028 237.979C587.028 237.211 586.704 236.551 586.056 235.999C585.432 235.447 584.556 235.027 583.428 234.739C582.3 234.451 580.956 234.307 579.396 234.307ZM615.019 231.607H618.331V233.335C618.331 234.583 618.115 235.783 617.683 236.935C617.251 238.063 616.627 239.107 615.811 240.067C615.019 241.027 614.059 241.891 612.931 242.659C611.827 243.427 610.603 244.075 609.259 244.603C607.915 245.107 606.475 245.479 604.939 245.719L603.463 242.695C604.807 242.503 606.055 242.203 607.207 241.795C608.383 241.363 609.451 240.847 610.411 240.247C611.371 239.623 612.187 238.939 612.859 238.195C613.555 237.451 614.083 236.671 614.443 235.855C614.827 235.039 615.019 234.199 615.019 233.335V231.607ZM615.739 231.607H619.015V233.335C619.015 234.175 619.195 235.003 619.555 235.819C619.939 236.635 620.479 237.415 621.175 238.159C621.871 238.903 622.699 239.587 623.659 240.211C624.619 240.811 625.675 241.327 626.827 241.759C628.003 242.191 629.251 242.503 630.571 242.695L629.095 245.719C627.583 245.479 626.155 245.095 624.811 244.567C623.467 244.039 622.231 243.391 621.103 242.623C619.999 241.855 619.039 240.991 618.223 240.031C617.431 239.071 616.819 238.027 616.387 236.899C615.955 235.771 615.739 234.583 615.739 233.335V231.607ZM615.055 251.119H618.799V263.467H615.055V251.119ZM602.131 248.779H631.867V251.875H602.131V248.779ZM650.008 238.123H658.576V241.219H650.008V238.123ZM642.448 232.003C644.104 232.003 645.58 232.327 646.876 232.975C648.172 233.623 649.18 234.535 649.9 235.711C650.644 236.863 651.016 238.195 651.016 239.707C651.016 241.219 650.644 242.563 649.9 243.739C649.18 244.891 648.172 245.803 646.876 246.475C645.58 247.123 644.104 247.447 642.448 247.447C640.816 247.447 639.352 247.123 638.056 246.475C636.76 245.803 635.74 244.891 634.996 243.739C634.276 242.563 633.916 241.219 633.916 239.707C633.916 238.195 634.276 236.863 634.996 235.711C635.74 234.535 636.76 233.623 638.056 232.975C639.352 232.327 640.816 232.003 642.448 232.003ZM642.484 235.135C641.524 235.135 640.66 235.327 639.892 235.711C639.148 236.071 638.56 236.599 638.128 237.295C637.72 237.991 637.516 238.795 637.516 239.707C637.516 240.619 637.72 241.423 638.128 242.119C638.56 242.815 639.148 243.355 639.892 243.739C640.636 244.099 641.488 244.279 642.448 244.279C643.408 244.279 644.26 244.099 645.004 243.739C645.748 243.355 646.336 242.815 646.768 242.119C647.2 241.423 647.416 240.619 647.416 239.707C647.416 238.795 647.2 237.991 646.768 237.295C646.336 236.599 645.748 236.071 645.004 235.711C644.284 235.327 643.444 235.135 642.484 235.135ZM656.92 230.563H660.7V248.203H656.92V230.563ZM639.316 249.787H643.06V253.459H656.956V249.787H660.7V263.035H639.316V249.787ZM643.06 256.375V260.011H656.956V256.375H643.06Z" fill="white"/>
</svg>
