<svg width="832" height="358" viewBox="0 0 832 358" fill="none" xmlns="http://www.w3.org/2000/svg">
<rect width="832" height="358" fill="#A4E7EB"/>
<path d="M225.606 102.787H242.108V178.199H196.501V102.787H213.004V125.691H225.606V102.787ZM213.004 140.693V163.197H225.606V140.693H213.004ZM251.51 182.5V101.987H270.013V182.5H251.51ZM311.167 102.787H327.67V178.199H282.062V102.787H298.565V125.691H311.167V102.787ZM298.565 140.693V163.197H311.167V140.693H298.565ZM367.876 128.691V145.994C366.276 145.994 364.176 146.194 361.775 146.394C359.575 146.694 357.474 147.094 355.574 147.594V182.5H337.071V101.987H355.574V130.491C357.474 129.891 359.575 129.391 361.875 129.091C364.376 128.891 366.376 128.691 367.876 128.691Z" fill="#0057ED"/>
<path d="M450.759 102.487V111.688C450.659 114.689 450.659 117.389 450.659 119.89C450.559 122.49 450.459 124.79 450.359 126.891C450.159 128.791 449.959 130.291 449.859 131.692H454.959V143.193H372.246V131.692H432.656C432.756 130.991 432.756 130.091 432.956 128.891V128.691H378.147V117.389H433.256V114.489H376.646V102.487H450.759ZM376.246 159.196H433.356V156.596H376.246V146.194H450.359V169.598H393.249V171.998H452.159V182.7H376.246V159.196ZM464.026 132.392H485.429V118.289H464.526V102.787H501.932V147.394H480.528V162.697H504.232V178.199H464.026V132.392ZM530.337 146.694C528.636 147.094 526.736 147.494 524.736 147.594V182.9H508.833V101.987H524.736V130.591H530.337V101.987H546.139V182.9H530.337V146.694ZM555.009 142.993C565.011 138.093 572.912 132.292 578.913 125.49C584.814 118.789 588.015 111.188 588.415 102.787H607.118C606.918 108.288 606.018 113.488 604.218 118.389C610.319 121.79 615.92 125.29 620.82 129.091C625.721 132.992 630.922 137.692 636.323 143.293L624.521 156.696C619.92 151.495 615.019 146.794 609.719 142.593C605.018 139.193 600.417 136.092 595.716 133.492L594.516 134.992C590.715 139.593 586.315 143.794 581.314 147.494C576.213 151.295 570.812 154.395 565.111 156.996L555.009 142.993ZM554.209 181.3V165.297H636.923V181.3H554.209Z" fill="#273FA1"/>
<path d="M103.489 249.788H133.297V252.884H103.489V249.788ZM116.377 242.084H120.121V250.688H116.377V242.084ZM116.233 226.1H119.545V228.584C119.545 229.976 119.317 231.32 118.861 232.616C118.429 233.888 117.793 235.076 116.953 236.18C116.137 237.284 115.165 238.28 114.037 239.168C112.909 240.056 111.661 240.812 110.293 241.436C108.949 242.06 107.533 242.516 106.045 242.804L104.461 239.636C105.757 239.42 106.993 239.06 108.169 238.556C109.345 238.052 110.425 237.44 111.409 236.72C112.393 236 113.245 235.208 113.965 234.344C114.685 233.456 115.237 232.532 115.621 231.572C116.029 230.588 116.233 229.592 116.233 228.584V226.1ZM116.953 226.1H120.229V228.584C120.229 229.592 120.433 230.588 120.841 231.572C121.249 232.556 121.813 233.48 122.533 234.344C123.253 235.208 124.105 236.012 125.089 236.756C126.073 237.476 127.153 238.088 128.329 238.592C129.505 239.072 130.753 239.42 132.073 239.636L130.453 242.804C128.965 242.516 127.537 242.06 126.169 241.436C124.825 240.812 123.589 240.068 122.461 239.204C121.333 238.316 120.349 237.32 119.509 236.216C118.693 235.088 118.057 233.888 117.601 232.616C117.169 231.32 116.953 229.976 116.953 228.584V226.1ZM134.77 241.292H164.506V244.28H134.77V241.292ZM147.766 237.368H151.51V242.444H147.766V237.368ZM138.586 235.676H161.194V238.592H138.586V235.676ZM138.586 224.948H160.978V227.864H142.366V237.296H138.586V224.948ZM141.25 230.312H160.15V233.12H141.25V230.312ZM149.602 246.296C153.202 246.296 155.986 246.752 157.954 247.664C159.946 248.552 160.942 249.872 160.942 251.624C160.942 253.352 159.946 254.66 157.954 255.548C155.986 256.46 153.202 256.916 149.602 256.916C146.026 256.916 143.242 256.46 141.25 255.548C139.282 254.66 138.298 253.352 138.298 251.624C138.298 249.872 139.282 248.552 141.25 247.664C143.242 246.752 146.026 246.296 149.602 246.296ZM149.602 249.104C147.13 249.104 145.258 249.32 143.986 249.752C142.714 250.16 142.078 250.784 142.078 251.624C142.078 252.464 142.714 253.1 143.986 253.532C145.258 253.94 147.13 254.144 149.602 254.144C152.098 254.144 153.982 253.94 155.254 253.532C156.526 253.1 157.162 252.464 157.162 251.624C157.162 250.784 156.526 250.16 155.254 249.752C153.982 249.32 152.098 249.104 149.602 249.104ZM167.564 227.504H182.108V230.564H167.564V227.504ZM172.28 236.936H175.988V248.096H172.28V236.936ZM180.596 227.504H184.304V229.7C184.304 231.14 184.268 232.916 184.196 235.028C184.124 237.14 183.848 239.648 183.368 242.552L179.66 242.228C180.116 239.42 180.38 236.996 180.452 234.956C180.548 232.892 180.596 231.14 180.596 229.7V227.504ZM187.868 224.048H191.612V256.952H187.868V224.048ZM190.532 237.584H196.508V240.716H190.532V237.584ZM166.196 250.04L165.8 246.908C167.768 246.908 169.904 246.896 172.208 246.872C174.512 246.824 176.852 246.74 179.228 246.62C181.604 246.476 183.884 246.272 186.068 246.008L186.284 248.78C184.028 249.14 181.712 249.416 179.336 249.608C176.984 249.776 174.692 249.884 172.46 249.932C170.228 249.98 168.14 250.016 166.196 250.04ZM204.807 227.108H208.371V234.848H214.059V227.108H217.551V248.924H204.807V227.108ZM208.371 237.836V245.9H214.059V237.836H208.371ZM228.207 224.048H231.807V256.952H228.207V224.048ZM223.491 236.9H229.431V239.924H223.491V236.9ZM220.971 224.696H224.499V255.404H220.971V224.696ZM248.04 241.004H251.784V246.512H248.04V241.004ZM249.912 224.624C252.312 224.624 254.388 224.876 256.14 225.38C257.892 225.884 259.236 226.604 260.172 227.54C261.132 228.452 261.612 229.568 261.612 230.888C261.612 232.184 261.132 233.3 260.172 234.236C259.236 235.148 257.892 235.856 256.14 236.36C254.388 236.84 252.312 237.08 249.912 237.08C247.536 237.08 245.46 236.84 243.684 236.36C241.932 235.856 240.576 235.148 239.616 234.236C238.656 233.3 238.176 232.184 238.176 230.888C238.176 229.568 238.656 228.452 239.616 227.54C240.576 226.604 241.932 225.884 243.684 225.38C245.46 224.876 247.536 224.624 249.912 224.624ZM249.912 227.54C248.28 227.54 246.876 227.672 245.7 227.936C244.524 228.2 243.624 228.584 243 229.088C242.376 229.568 242.064 230.168 242.064 230.888C242.064 231.584 242.376 232.184 243 232.688C243.624 233.168 244.524 233.54 245.7 233.804C246.876 234.068 248.28 234.2 249.912 234.2C251.544 234.2 252.936 234.068 254.088 233.804C255.264 233.54 256.164 233.168 256.788 232.688C257.412 232.184 257.724 231.584 257.724 230.888C257.724 230.168 257.412 229.568 256.788 229.088C256.164 228.584 255.264 228.2 254.088 227.936C252.936 227.672 251.544 227.54 249.912 227.54ZM238.608 245.576H261.18V256.556H238.608V245.576ZM257.472 248.564H242.28V253.568H257.472V248.564ZM235.044 239.24H264.78V242.264H235.044V239.24ZM276.981 226.352C278.709 226.352 280.245 226.688 281.589 227.36C282.933 228.032 283.989 228.968 284.757 230.168C285.525 231.344 285.909 232.712 285.909 234.272C285.909 235.808 285.525 237.176 284.757 238.376C283.989 239.576 282.933 240.512 281.589 241.184C280.245 241.856 278.709 242.192 276.981 242.192C275.277 242.192 273.753 241.856 272.409 241.184C271.065 240.512 269.997 239.576 269.205 238.376C268.437 237.176 268.053 235.808 268.053 234.272C268.053 232.712 268.437 231.344 269.205 230.168C269.997 228.968 271.065 228.032 272.409 227.36C273.753 226.688 275.277 226.352 276.981 226.352ZM276.981 229.628C275.997 229.628 275.097 229.82 274.281 230.204C273.489 230.564 272.865 231.092 272.409 231.788C271.953 232.484 271.725 233.312 271.725 234.272C271.725 235.208 271.953 236.036 272.409 236.756C272.865 237.452 273.489 237.992 274.281 238.376C275.097 238.76 275.997 238.952 276.981 238.952C277.989 238.952 278.877 238.76 279.645 238.376C280.437 237.992 281.061 237.452 281.517 236.756C281.973 236.036 282.201 235.208 282.201 234.272C282.201 233.312 281.973 232.484 281.517 231.788C281.061 231.092 280.437 230.564 279.645 230.204C278.877 229.82 277.989 229.628 276.981 229.628ZM289.653 224.048H293.433V257.024H289.653V224.048ZM267.009 250.04L266.505 246.944C268.497 246.944 270.681 246.932 273.057 246.908C275.433 246.86 277.869 246.764 280.365 246.62C282.885 246.452 285.321 246.188 287.673 245.828L287.961 248.6C285.537 249.056 283.077 249.392 280.581 249.608C278.109 249.8 275.709 249.92 273.381 249.968C271.053 250.016 268.929 250.04 267.009 250.04ZM312.352 226.784H315.448V232.184C315.448 234.176 315.232 236.096 314.8 237.944C314.368 239.792 313.732 241.52 312.892 243.128C312.076 244.736 311.08 246.152 309.904 247.376C308.752 248.6 307.432 249.572 305.944 250.292L303.676 247.196C304.996 246.596 306.184 245.78 307.24 244.748C308.32 243.692 309.232 242.492 309.976 241.148C310.744 239.804 311.332 238.364 311.74 236.828C312.148 235.292 312.352 233.744 312.352 232.184V226.784ZM313.036 226.784H316.132V232.184C316.132 233.696 316.324 235.184 316.708 236.648C317.116 238.112 317.692 239.492 318.436 240.788C319.18 242.084 320.08 243.224 321.136 244.208C322.192 245.192 323.356 245.984 324.628 246.584L322.432 249.608C320.968 248.912 319.66 247.976 318.508 246.8C317.356 245.624 316.372 244.268 315.556 242.732C314.74 241.196 314.116 239.528 313.684 237.728C313.252 235.928 313.036 234.08 313.036 232.184V226.784ZM327.256 224.048H331.036V257.024H327.256V224.048ZM343.021 227.432H346.117V229.844C346.117 231.884 345.757 233.804 345.037 235.604C344.317 237.38 343.273 238.928 341.905 240.248C340.561 241.544 338.905 242.54 336.937 243.236L334.993 240.284C336.721 239.708 338.185 238.88 339.385 237.8C340.585 236.72 341.485 235.496 342.085 234.128C342.709 232.736 343.021 231.308 343.021 229.844V227.432ZM343.741 227.432H346.837V229.808C346.837 231.2 347.137 232.544 347.737 233.84C348.337 235.136 349.213 236.288 350.365 237.296C351.541 238.304 352.957 239.096 354.613 239.672L352.705 242.624C350.809 241.976 349.189 241.016 347.845 239.744C346.501 238.448 345.481 236.948 344.785 235.244C344.089 233.54 343.741 231.728 343.741 229.808V227.432ZM336.037 226.208H353.713V229.232H336.037V226.208ZM357.205 224.084H360.949V243.884H357.205V224.084ZM359.941 232.4H365.593V235.532H359.941V232.4ZM339.349 245.504H360.949V256.988H357.205V248.564H339.349V245.504ZM367.787 261.2L366.851 258.86C368.099 258.332 369.071 257.624 369.767 256.736C370.463 255.872 370.799 254.9 370.775 253.82L370.487 250.508L372.215 253.244C371.975 253.508 371.699 253.7 371.387 253.82C371.075 253.916 370.739 253.964 370.379 253.964C369.659 253.964 369.011 253.736 368.435 253.28C367.883 252.8 367.607 252.14 367.607 251.3C367.607 250.484 367.883 249.836 368.435 249.356C369.011 248.876 369.695 248.636 370.487 248.636C371.519 248.636 372.311 249.032 372.863 249.824C373.415 250.616 373.691 251.708 373.691 253.1C373.691 254.996 373.163 256.64 372.107 258.032C371.075 259.448 369.635 260.504 367.787 261.2ZM381.807 242.696H411.615V245.792H381.807V242.696ZM394.731 244.676H398.475V256.988H394.731V244.676ZM396.639 225.308C398.943 225.308 400.971 225.608 402.723 226.208C404.475 226.808 405.843 227.648 406.827 228.728C407.811 229.808 408.303 231.092 408.303 232.58C408.303 234.068 407.811 235.364 406.827 236.468C405.843 237.548 404.475 238.388 402.723 238.988C400.971 239.588 398.943 239.888 396.639 239.888C394.335 239.888 392.295 239.588 390.519 238.988C388.767 238.388 387.399 237.548 386.415 236.468C385.431 235.364 384.939 234.068 384.939 232.58C384.939 231.092 385.431 229.808 386.415 228.728C387.399 227.648 388.767 226.808 390.519 226.208C392.295 225.608 394.335 225.308 396.639 225.308ZM396.603 228.296C395.043 228.296 393.675 228.476 392.499 228.836C391.347 229.172 390.447 229.664 389.799 230.312C389.151 230.936 388.827 231.692 388.827 232.58C388.827 233.468 389.151 234.236 389.799 234.884C390.447 235.532 391.347 236.024 392.499 236.36C393.675 236.696 395.043 236.864 396.603 236.864C398.187 236.864 399.555 236.696 400.707 236.36C401.883 236.024 402.795 235.532 403.443 234.884C404.091 234.236 404.415 233.468 404.415 232.58C404.415 231.692 404.091 230.936 403.443 230.312C402.795 229.664 401.883 229.172 400.707 228.836C399.555 228.476 398.187 228.296 396.603 228.296ZM436.488 224.048H440.268V257.024H436.488V224.048ZM414.96 246.08H417.768C419.664 246.08 421.476 246.056 423.204 246.008C424.956 245.936 426.696 245.816 428.424 245.648C430.152 245.48 431.94 245.252 433.788 244.964L434.148 248.024C431.316 248.504 428.604 248.828 426.012 248.996C423.42 249.14 420.672 249.212 417.768 249.212H414.96V246.08ZM414.888 227H430.26V239.168H418.776V247.268H414.96V236.18H426.408V230.06H414.888V227ZM466.366 224.084H470.11V248.276H466.366V224.084ZM468.994 233.732H474.754V236.864H468.994V233.732ZM449.302 253.244H471.478V256.304H449.302V253.244ZM449.302 245.9H453.082V253.928H449.302V245.9ZM445.594 226.424H449.338V231.572H457.366V226.424H461.11V242.912H445.594V226.424ZM449.338 234.488V239.888H457.366V234.488H449.338ZM482.045 249.824H511.853V252.92H482.045V249.824ZM495.005 241.868H498.785V250.616H495.005V241.868ZM485.357 226.676H508.397V242.444H485.357V226.676ZM504.689 229.664H489.065V239.456H504.689V229.664ZM517.322 236.036H539.57V239.06H517.322V236.036ZM513.362 242.876H543.17V245.972H513.362V242.876ZM526.286 244.604H530.03V256.88H526.286V244.604ZM517.322 225.92H539.138V228.944H521.138V237.512H517.322V225.92ZM563.925 242.624H567.705V250.508H563.925V242.624ZM565.833 226.028C568.161 226.028 570.225 226.388 572.025 227.108C573.849 227.828 575.289 228.848 576.345 230.168C577.401 231.488 577.929 233.036 577.929 234.812C577.929 236.612 577.401 238.172 576.345 239.492C575.289 240.812 573.849 241.844 572.025 242.588C570.225 243.308 568.161 243.668 565.833 243.668C563.505 243.668 561.429 243.308 559.605 242.588C557.781 241.844 556.341 240.812 555.285 239.492C554.229 238.172 553.701 236.612 553.701 234.812C553.701 233.036 554.229 231.488 555.285 230.168C556.341 228.848 557.781 227.828 559.605 227.108C561.429 226.388 563.505 226.028 565.833 226.028ZM565.833 229.016C564.177 229.016 562.713 229.256 561.441 229.736C560.193 230.192 559.209 230.852 558.489 231.716C557.769 232.58 557.409 233.612 557.409 234.812C557.409 236.012 557.769 237.056 558.489 237.944C559.209 238.808 560.193 239.48 561.441 239.96C562.713 240.416 564.177 240.644 565.833 240.644C567.465 240.644 568.917 240.416 570.189 239.96C571.461 239.48 572.457 238.808 573.177 237.944C573.897 237.056 574.257 236.012 574.257 234.812C574.257 233.612 573.897 232.58 573.177 231.716C572.457 230.852 571.461 230.192 570.189 229.736C568.917 229.256 567.465 229.016 565.833 229.016ZM550.965 249.824H580.773V252.92H550.965V249.824ZM586.134 231.32H608.634V234.344H586.134V231.32ZM582.282 237.08H612.09V240.104H582.282V237.08ZM586.134 224.48H589.842V232.832H586.134V224.48ZM585.81 242.624H608.418V250.796H589.662V254.432H585.882V248.06H604.638V245.504H585.81V242.624ZM585.882 253.676H609.462V256.556H585.882V253.676ZM617.235 239.132H640.059V242.156H617.235V239.132ZM613.599 249.932H643.407V253.028H613.599V249.932ZM626.559 240.464H630.339V251.012H626.559V240.464ZM617.235 226.532H639.771V229.592H621.015V240.464H617.235V226.532ZM657.79 254L649.474 227.468H653.902L657.826 241.22C658.282 242.732 658.678 244.172 659.014 245.54C659.374 246.908 659.782 248.36 660.238 249.896H660.418C660.898 248.36 661.306 246.908 661.642 245.54C662.002 244.172 662.41 242.732 662.866 241.22L666.754 227.468H671.038L662.722 254H657.79ZM672.613 254V227.468H676.789V254H672.613ZM686.675 254L678.359 227.468H682.787L686.711 241.22C687.167 242.732 687.563 244.172 687.899 245.54C688.259 246.908 688.667 248.36 689.123 249.896H689.303C689.783 248.36 690.191 246.908 690.527 245.54C690.887 244.172 691.295 242.732 691.751 241.22L695.639 227.468H699.923L691.607 254H686.675ZM697.232 254L706.016 227.468H710.84L719.624 254H715.196L710.912 239.6C710.48 238.16 710.06 236.708 709.652 235.244C709.244 233.756 708.836 232.268 708.428 230.78H708.284C707.9 232.292 707.492 233.78 707.06 235.244C706.652 236.708 706.232 238.16 705.8 239.6L701.516 254H697.232ZM702.2 246.476V243.164H714.584V246.476H702.2ZM722.615 245.54L722.039 231.176L721.895 226.856H726.107L725.999 231.176L725.387 245.54H722.615ZM723.983 254.504C723.215 254.504 722.567 254.228 722.039 253.676C721.511 253.1 721.247 252.392 721.247 251.552C721.247 250.688 721.511 249.992 722.039 249.464C722.567 248.912 723.215 248.636 723.983 248.636C724.799 248.636 725.471 248.912 725.999 249.464C726.527 249.992 726.791 250.688 726.791 251.552C726.791 252.392 726.527 253.1 725.999 253.676C725.471 254.228 724.799 254.504 723.983 254.504Z" fill="#606060"/>
</svg>
